<?xml version="1.0" standalone="no"?>
<!DOCTYPE svg PUBLIC "-//W3C//DTD SVG 20010904//EN"
 "http://www.w3.org/TR/2001/REC-SVG-20010904/DTD/svg10.dtd">
<svg version="1.0" xmlns="http://www.w3.org/2000/svg"
 width="3750.000000pt" height="2500.000000pt" viewBox="0 0 3750.000000 2500.000000"
 preserveAspectRatio="xMidYMid meet">

<g transform="translate(0.000000,2500.000000) scale(0.100000,-0.100000)"
fill="#000000" stroke="none">
<path d="M0 12500 l0 -12500 18750 0 18750 0 0 12500 0 12500 -18750 0 -18750
0 0 -12500z m3598 11974 c44 -31 17 -104 -39 -104 -30 0 -59 31 -59 62 0 23
35 58 58 58 10 0 28 -7 40 -16z m-2234 -488 c17 -3 62 -11 101 -17 l70 -12
-77 -71 -76 -71 14 -94 c8 -52 13 -96 11 -98 -2 -2 -40 17 -84 42 -45 25 -86
45 -92 45 -6 0 -48 -18 -92 -41 -45 -22 -82 -39 -84 -37 -2 2 5 46 16 98 l19
94 -71 72 c-39 39 -67 74 -63 76 5 3 43 8 84 12 41 4 83 9 92 12 9 3 39 46 65
95 l48 90 44 -95 c39 -85 46 -95 75 -100z m10056 28 c5 -14 21 -24 42 -27 18
-4 64 -12 102 -18 l70 -12 -78 -71 -78 -71 16 -95 c8 -52 13 -96 11 -98 -1 -2
-39 17 -84 42 -44 25 -85 46 -91 46 -6 0 -47 -18 -91 -41 -45 -22 -83 -38 -85
-36 -2 2 5 46 15 98 l20 94 -71 71 c-38 39 -66 74 -62 76 5 3 43 8 84 12 41 4
83 9 93 12 10 3 38 46 63 97 l46 91 35 -75 c19 -41 39 -84 43 -95z m24904
-195 c34 -27 32 -64 -6 -92 l-28 -21 -27 21 c-39 28 -41 65 -7 92 15 11 30 21
34 21 4 0 19 -10 34 -21z m-13943 -134 c22 -46 44 -87 49 -90 5 -3 49 -13 97
-21 48 -9 89 -17 91 -18 1 -2 -30 -35 -70 -74 l-72 -70 13 -92 c7 -50 11 -93
8 -96 -2 -2 -41 17 -86 42 l-82 47 -90 -42 c-49 -22 -91 -41 -93 -41 -2 0 6
43 16 96 l20 97 -72 72 c-82 82 -84 78 46 91 40 3 76 9 82 13 5 3 28 43 51 89
23 45 44 82 47 82 3 0 23 -38 45 -85z m-3313 -21 c42 -29 18 -104 -35 -104
-27 0 -63 32 -63 57 0 22 39 63 60 63 8 0 26 -7 38 -16z m-3390 -644 c139 -21
135 -13 48 -94 l-76 -71 14 -95 c9 -52 14 -95 13 -97 -2 -1 -41 19 -88 45
l-85 48 -89 -43 c-49 -24 -90 -41 -92 -40 -2 2 6 46 16 98 l20 94 -70 70 c-38
39 -69 73 -69 77 0 3 35 9 78 13 123 11 118 7 169 109 l46 91 44 -96 45 -97
76 -12z m14606 84 c43 -43 -5 -120 -60 -96 -13 7 -29 23 -36 36 -24 55 53 103
96 60z m-22995 -417 c7 -7 97 -34 300 -88 l85 -22 -194 -52 -194 -52 -50 -186
c-28 -103 -53 -183 -57 -179 -3 4 -27 86 -53 182 -26 96 -50 178 -54 181 -4 3
-89 28 -189 54 -101 27 -181 50 -179 53 2 2 87 26 187 53 101 27 184 51 185
52 1 1 21 72 44 157 68 257 55 252 112 40 28 -102 53 -189 57 -193z m-3528
-215 l85 -187 202 -35 c111 -19 202 -37 202 -40 0 -3 -67 -67 -150 -143 -82
-76 -150 -141 -150 -145 0 -4 13 -95 29 -202 16 -107 28 -196 26 -198 -1 -1
-82 43 -181 99 l-179 101 -184 -92 c-101 -50 -184 -90 -186 -88 -1 2 15 91 36
198 21 107 38 198 36 202 -1 3 -66 73 -143 155 l-142 149 202 23 c110 13 204
25 208 27 4 3 49 86 100 184 51 99 95 180 98 180 3 -1 43 -85 91 -188z m22593
-72 c26 -96 49 -182 51 -190 4 -11 63 -31 190 -65 102 -27 185 -52 185 -55 0
-3 -83 -27 -185 -54 -183 -49 -185 -49 -193 -80 -5 -17 -29 -104 -52 -194
l-44 -164 -52 191 c-28 106 -53 193 -55 195 -2 3 -83 25 -179 51 -96 26 -178
50 -182 54 -4 4 75 29 177 56 l185 49 14 51 c8 27 32 114 52 192 21 78 39 141
40 140 1 -1 23 -81 48 -177z m8498 -505 l84 -180 199 -34 c110 -19 202 -36
204 -38 3 -2 -35 -40 -85 -86 -49 -45 -117 -109 -152 -142 l-62 -60 29 -200
c16 -110 28 -201 26 -203 -1 -1 -82 43 -181 99 l-179 101 -184 -92 c-101 -50
-185 -90 -186 -88 -2 2 15 92 37 201 l39 198 -144 152 -145 153 201 23 c111
13 205 25 209 27 4 3 49 85 100 184 51 98 96 176 100 172 4 -4 44 -88 90 -187z
m-25752 -335 c11 -11 20 -29 20 -40 0 -26 -34 -60 -62 -60 -50 0 -76 63 -41
102 21 24 58 23 83 -2z m-7755 -735 c29 -28 31 -42 9 -73 -18 -26 -65 -30 -88
-6 -24 23 -20 70 6 88 31 22 45 20 73 -9z m29080 -531 c25 -56 45 -88 59 -93
12 -5 59 -14 105 -22 l83 -13 -77 -71 -78 -71 14 -97 c9 -53 13 -97 11 -97 -3
0 -43 21 -90 46 l-85 47 -85 -42 c-46 -23 -86 -40 -89 -38 -2 3 4 46 13 96
l18 90 -68 71 c-38 39 -66 73 -63 77 3 3 47 10 98 17 l92 11 46 87 c25 48 48
88 51 88 3 0 23 -39 45 -86z m-11007 -619 c22 -82 45 -168 51 -190 l11 -41
185 -49 c102 -27 185 -52 185 -55 0 -3 -83 -27 -185 -54 -183 -49 -185 -49
-193 -80 -5 -17 -28 -105 -52 -195 l-44 -163 -38 143 c-21 79 -45 167 -53 195
l-15 51 -185 49 c-102 27 -185 51 -185 54 0 3 83 27 185 54 l185 49 13 46 c8
25 31 112 53 193 21 81 39 146 40 145 1 -1 20 -69 42 -152z m-6678 -280 c47
-102 91 -187 100 -190 8 -2 98 -18 200 -36 102 -17 187 -33 189 -35 2 -2 -34
-39 -80 -81 -46 -43 -114 -107 -151 -143 l-68 -65 30 -200 c16 -110 28 -200
27 -201 -1 -2 -82 43 -181 98 l-178 101 -182 -89 c-99 -48 -184 -89 -187 -90
-3 -2 11 83 32 188 22 106 39 198 39 206 0 8 -64 79 -142 158 -78 79 -139 146
-137 148 2 3 94 15 204 28 l200 23 95 182 c52 101 97 183 100 183 3 0 44 -83
90 -185z m23630 -445 c11 -11 20 -29 20 -40 0 -26 -34 -60 -62 -60 -50 0 -76
63 -41 102 21 24 58 23 83 -2z m-33049 -320 c23 -49 49 -92 58 -94 9 -2 50
-10 91 -16 41 -7 78 -14 83 -17 4 -2 -26 -35 -66 -73 l-74 -69 13 -88 c8 -48
14 -93 14 -100 0 -6 -40 11 -89 39 l-89 49 -91 -46 c-86 -43 -91 -44 -86 -23
42 184 45 168 -48 264 l-59 61 44 6 c23 4 69 9 101 13 l58 6 45 89 c24 49 46
89 49 89 2 0 23 -40 46 -90z m4191 -7 c24 -21 23 -58 -2 -83 -25 -25 -41 -25
-74 1 -30 23 -33 45 -10 77 18 26 60 29 86 5z m2777 -115 c-141 -200 -259
-397 -379 -633 -271 -536 -431 -1076 -507 -1710 -25 -213 -25 -795 0 -1010 97
-832 358 -1554 802 -2225 787 -1190 2080 -1991 3500 -2169 525 -66 1085 -44
1593 63 61 13 112 21 112 17 0 -10 -121 -164 -208 -266 -45 -52 -82 -97 -82
-100 0 -3 6 -5 14 -5 8 0 56 -21 107 -47 79 -39 109 -62 191 -143 l97 -97 68
13 c329 66 711 -17 988 -214 140 -99 283 -252 357 -380 25 -45 34 -53 52 -47
221 64 396 61 567 -10 289 -121 478 -414 467 -726 l-3 -95 60 -35 c81 -47 202
-169 254 -256 87 -148 124 -319 104 -481 -48 -383 -372 -672 -753 -672 -75 0
-186 17 -230 34 -10 4 -39 -13 -80 -50 -178 -155 -384 -252 -619 -291 -53 -8
-97 -16 -98 -17 -2 -1 6 -25 17 -53 40 -106 61 -248 59 -394 -1 -75 -8 -164
-14 -197 -32 -154 -106 -321 -195 -442 -278 -374 -718 -527 -1195 -415 -5 1
-22 5 -37 9 -24 7 -36 0 -101 -59 -205 -185 -495 -341 -756 -405 -211 -52
-509 -67 -721 -36 -98 15 -266 60 -366 100 l-62 24 -58 -60 c-81 -81 -183
-157 -284 -211 -85 -45 -224 -95 -290 -104 -19 -3 -53 -9 -75 -13 -22 -5 -101
-7 -175 -5 -127 3 -163 7 -217 20 -13 3 -32 7 -42 9 -83 19 -296 118 -365 171
l-34 26 -111 -76 c-223 -150 -398 -224 -701 -294 -241 -56 -615 -42 -865 32
-330 98 -583 244 -831 479 -65 62 -73 67 -85 51 -8 -9 -50 -43 -93 -75 -143
-107 -344 -189 -516 -213 -33 -5 -257 -5 -295 0 -59 7 -181 37 -235 57 -319
122 -531 335 -668 669 l-11 27 -63 -17 c-47 -12 -108 -16 -238 -16 -150 0
-188 4 -264 24 -295 77 -533 252 -683 501 -41 68 -100 198 -109 237 -1 6 -7
27 -13 45 -28 89 -40 197 -36 323 3 72 7 141 9 155 29 173 119 375 227 510
l60 74 -64 64 -65 64 -103 -35 c-199 -69 -286 -82 -539 -81 -194 0 -239 3
-326 22 -287 62 -590 218 -775 399 l-47 45 -88 -23 c-119 -31 -339 -33 -459
-5 -369 86 -655 361 -752 723 -23 85 -26 119 -27 253 0 172 17 267 73 401 76
180 238 368 401 464 l85 50 -7 70 c-10 88 6 258 33 355 48 178 178 380 316
495 285 237 648 297 1024 169 11 -4 31 19 73 85 383 604 1097 909 1793 765
l77 -16 18 24 c62 78 61 60 6 193 -173 422 -287 870 -344 1355 -25 210 -30
703 -10 930 102 1162 578 2209 1380 3037 549 567 1227 991 1986 1242 154 51
399 119 433 120 13 1 6 -16 -34 -71z m16329 -414 c44 -31 17 -104 -39 -104
-29 0 -59 31 -59 59 0 20 40 61 60 61 8 0 26 -7 38 -16z m-2773 -397 l43 -94
91 -13 c51 -7 94 -16 96 -21 3 -4 -27 -37 -66 -73 l-72 -65 12 -91 c7 -50 11
-94 8 -97 -3 -3 -43 15 -88 40 l-83 45 -88 -44 c-54 -27 -88 -39 -88 -32 0 7
7 53 16 102 l16 88 -71 72 -72 73 97 12 c54 6 103 16 108 21 6 4 29 45 51 89
21 45 41 81 43 81 2 0 23 -42 47 -93z m-5990 -202 c29 -28 31 -42 9 -73 -20
-29 -79 -31 -94 -3 -17 32 -12 69 12 85 31 22 45 20 73 -9z m15657 -222 c24
-21 23 -58 -2 -83 -26 -26 -48 -25 -77 2 -27 25 -29 45 -7 76 18 26 60 29 86
5z m-4313 -833 c48 -106 87 -178 98 -182 10 -4 101 -21 203 -38 102 -18 186
-33 188 -34 1 -2 -65 -65 -148 -141 -82 -76 -150 -145 -150 -154 0 -9 12 -98
26 -199 15 -101 24 -185 21 -188 -3 -3 -82 37 -176 90 -94 53 -175 96 -181 96
-6 0 -91 -41 -190 -90 -99 -50 -180 -86 -180 -82 0 5 18 96 39 203 l40 194
-67 70 c-37 39 -102 106 -145 151 l-79 81 39 6 c21 3 106 13 188 22 83 9 159
20 171 25 13 5 53 71 113 185 51 97 97 173 101 168 5 -4 44 -87 89 -183z
m-27843 -346 c19 -28 11 -59 -21 -80 -21 -13 -28 -14 -52 -2 -24 11 -28 19
-28 53 0 31 5 42 23 51 31 15 60 7 78 -22z m32364 -305 c28 -100 55 -186 61
-189 6 -4 91 -29 190 -55 99 -26 178 -49 177 -51 -2 -1 -86 -25 -187 -53 -100
-27 -184 -51 -186 -53 -3 -2 -27 -86 -54 -187 -27 -100 -51 -184 -53 -186 -2
-2 -25 79 -52 181 -27 101 -54 188 -60 192 -6 5 -94 30 -195 57 -101 27 -180
50 -175 52 5 2 92 25 193 52 101 28 184 51 185 53 2 2 25 87 52 190 27 102 50
185 52 183 2 -1 25 -85 52 -186z m-11578 -426 c37 -33 11 -103 -38 -103 -20 0
-64 41 -64 60 0 4 9 19 21 34 23 30 54 33 81 9z m-7212 -423 c55 -206 104
-378 108 -382 4 -4 176 -52 382 -108 206 -55 375 -102 376 -103 1 -1 -156 -44
-349 -96 -194 -52 -366 -98 -383 -103 l-30 -8 -104 -386 c-57 -213 -105 -383
-107 -378 -1 5 -47 177 -102 383 -55 206 -102 376 -105 378 -2 2 -176 50 -386
107 l-382 103 288 77 c159 43 333 90 386 104 l97 26 19 71 c10 38 57 210 103
382 46 172 84 311 85 310 1 -1 48 -171 104 -377z m-3100 110 c24 -24 26 -57 3
-82 -33 -37 -103 -11 -103 39 0 28 33 63 60 63 11 0 29 -9 40 -20z m-9772
-855 c22 -82 45 -168 51 -190 l11 -41 185 -49 c102 -27 185 -52 185 -55 0 -3
-83 -27 -185 -54 -130 -35 -186 -54 -189 -65 -3 -9 -26 -96 -52 -195 l-48
-178 -38 143 c-21 79 -45 167 -53 195 l-15 51 -185 49 c-102 27 -185 51 -185
54 0 3 83 27 185 54 l185 49 14 46 c7 25 31 112 52 193 21 81 39 146 40 145 1
-1 20 -69 42 -152z m3564 -22 c10 -9 18 -27 18 -40 0 -28 -33 -63 -60 -63 -11
0 -29 9 -40 20 -55 55 24 135 82 83z m18803 -889 c25 -56 45 -88 59 -93 12 -5
59 -14 105 -22 l83 -13 -77 -71 -78 -71 11 -77 c20 -130 25 -126 -75 -71 l-86
47 -85 -42 c-46 -23 -86 -40 -89 -38 -2 3 4 46 13 97 l17 92 -69 69 c-37 37
-65 71 -61 75 3 3 47 11 98 18 l92 11 46 87 c25 48 48 88 51 88 3 0 23 -39 45
-86z m6001 -1239 c26 -99 51 -185 56 -191 4 -6 91 -33 192 -60 102 -27 183
-50 181 -52 -1 -2 -85 -25 -185 -52 -101 -27 -185 -52 -188 -54 -2 -3 -26 -83
-52 -178 -25 -95 -49 -180 -51 -188 -3 -8 -27 68 -54 168 -27 100 -51 186 -55
192 -3 6 -89 32 -189 60 -101 27 -185 50 -186 52 -2 2 79 25 181 52 101 27
188 54 192 60 5 6 31 93 57 194 27 100 49 181 51 180 1 -2 23 -84 50 -183z
m-11195 -116 c21 -46 44 -86 51 -90 7 -4 47 -12 88 -19 41 -6 81 -13 88 -16 8
-2 -15 -32 -62 -76 l-75 -73 14 -80 c22 -124 26 -120 -74 -64 l-90 50 -90 -46
c-50 -25 -91 -42 -91 -38 1 5 9 48 20 98 l18 90 -69 76 -69 77 101 12 100 12
45 90 c25 50 48 88 51 85 3 -4 23 -43 44 -88z m14377 -108 c50 -8 92 -18 92
-22 0 -4 -32 -37 -71 -73 l-70 -65 14 -98 c8 -54 14 -99 13 -100 -1 -1 -41 21
-89 48 l-87 49 -90 -45 c-50 -25 -90 -40 -90 -33 0 6 8 51 17 100 l17 88 -69
70 c-38 38 -67 72 -64 74 2 3 45 10 94 16 48 6 92 13 97 16 5 3 22 33 40 67
61 122 55 121 107 15 l46 -93 93 -14z m2254 -898 c37 -33 11 -103 -38 -103
-27 0 -64 36 -64 62 0 25 35 58 62 58 12 0 30 -7 40 -17z m-8870 -110 c37 -33
11 -103 -39 -103 -25 0 -63 32 -63 54 0 23 40 66 62 66 12 0 30 -7 40 -17z
m-5367 -273 c22 -25 16 -59 -16 -83 -23 -16 -30 -17 -50 -7 -47 25 -53 68 -14
98 28 22 55 19 80 -8z m-20387 -352 c24 -31 23 -57 -2 -83 -14 -14 -32 -25
-41 -25 -28 0 -67 48 -59 73 11 36 25 47 59 47 18 0 37 -6 43 -12z m24887
-1368 c144 -45 289 -143 371 -249 23 -30 45 -48 53 -45 7 2 57 12 110 20 124
21 349 13 471 -15 309 -71 575 -245 768 -503 56 -76 67 -86 81 -75 9 6 43 34
76 61 196 161 464 295 720 359 89 23 123 30 200 43 72 13 387 15 486 4 126
-14 305 -55 417 -95 41 -15 75 -25 76 -23 2 2 18 26 36 53 90 132 297 298 455
364 82 34 240 78 310 86 64 7 198 7 251 0 27 -3 63 -8 79 -10 54 -7 209 -55
273 -85 149 -69 313 -199 403 -318 24 -31 44 -58 45 -60 1 -2 38 3 81 12 202
41 461 49 659 21 556 -78 1052 -403 1345 -881 29 -46 53 -84 55 -84 2 0 37 11
77 25 128 43 245 58 397 52 190 -9 285 -32 443 -109 219 -107 412 -299 511
-508 33 -71 73 -181 82 -225 2 -11 6 -31 9 -45 13 -60 15 -80 19 -170 2 -52 1
-123 -3 -157 l-7 -62 95 -58 c399 -245 601 -714 506 -1178 -17 -85 -23 -103
-63 -205 -95 -237 -293 -445 -541 -570 -88 -44 -128 -57 -256 -85 -152 -33
-354 -30 -493 9 l-94 26 -66 -61 c-271 -248 -606 -404 -982 -456 -30 -5 -145
-7 -255 -7 -177 1 -214 4 -320 28 -144 31 -126 27 -254 70 l-104 36 -84 -80
c-153 -145 -322 -239 -503 -281 -25 -6 -54 -13 -65 -15 -90 -22 -332 -24 -390
-4 -11 4 -38 10 -60 13 -105 16 -256 81 -380 164 -27 18 -54 33 -58 33 -5 0
-37 -19 -71 -43 -168 -118 -327 -199 -496 -254 -86 -28 -167 -50 -207 -58 -16
-2 -53 -9 -83 -15 -158 -31 -453 -33 -615 -5 -66 11 -95 16 -100 16 -13 0
-158 43 -225 66 -100 34 -308 134 -395 190 -101 65 -218 159 -307 246 l-77 75
-21 -23 c-33 -35 -173 -133 -237 -166 -375 -192 -802 -165 -1158 74 -157 105
-346 346 -395 502 -7 22 -16 44 -20 48 -4 5 -43 1 -86 -9 -85 -18 -301 -25
-389 -11 -126 20 -278 74 -392 141 -218 128 -405 357 -483 591 l-21 62 -132 6
c-313 15 -596 133 -814 340 l-78 74 -55 -44 c-116 -92 -245 -146 -395 -165
-167 -21 -347 23 -498 122 -106 69 -204 179 -263 295 -29 58 -53 94 -60 91
-36 -14 -187 -27 -244 -21 -402 40 -700 363 -700 760 0 349 235 652 572 739
l52 13 13 78 c62 406 442 697 841 644 79 -10 87 -10 97 6 40 68 136 191 202
258 193 197 441 327 707 373 77 13 135 15 260 11 163 -5 252 -21 380 -66 l55
-19 27 40 c38 55 150 156 218 197 70 42 161 79 240 97 90 20 281 12 371 -16z
m10017 -767 c49 -44 -13 -132 -68 -95 -18 12 -35 52 -28 65 28 48 63 60 96 30z
m-34892 -251 c26 -95 50 -175 53 -178 3 -3 87 -27 187 -54 101 -27 184 -51
186 -53 2 -1 -79 -24 -179 -51 -100 -27 -187 -53 -193 -60 -6 -6 -32 -93 -59
-194 -27 -100 -49 -181 -51 -180 -1 2 -23 84 -49 183 -27 99 -53 185 -59 191
-6 7 -93 33 -193 60 -100 27 -181 50 -179 51 2 2 86 26 186 53 101 27 186 54
190 60 4 7 29 93 55 193 27 99 51 174 54 166 2 -7 26 -92 51 -187z m18327
-1269 c20 -30 6 -68 -31 -85 -20 -9 -30 -8 -51 6 -22 14 -26 24 -23 54 5 61
71 77 105 25z m-14709 -179 c26 -18 29 -60 5 -86 -23 -25 -68 -23 -87 4 -21
30 -20 54 4 78 24 24 48 25 78 4z m14961 -1988 c55 -203 104 -372 110 -375 5
-3 177 -51 381 -105 204 -55 365 -103 358 -107 -7 -3 -178 -51 -381 -105
l-367 -98 -8 -30 c-5 -17 -51 -189 -103 -383 -52 -193 -95 -350 -97 -349 -1 2
-48 171 -103 377 -55 206 -104 377 -107 381 -6 5 -736 206 -760 209 -4 0 124
36 283 79 160 44 333 91 385 105 l96 26 89 332 c108 401 117 435 122 422 1 -5
48 -176 102 -379z m-13239 -232 c7 -17 23 -23 87 -33 136 -22 132 -14 47 -95
l-75 -71 11 -75 c6 -41 13 -86 16 -98 5 -22 -1 -21 -88 26 l-92 50 -88 -44
c-53 -27 -88 -39 -88 -32 1 7 9 52 19 100 l18 86 -68 68 c-38 38 -69 71 -69
75 0 3 30 9 68 13 131 13 123 8 176 108 l49 90 34 -73 c19 -41 38 -83 43 -95z
m-2985 -244 c68 -147 93 -191 109 -195 12 -2 102 -18 201 -35 99 -17 181 -32
182 -34 2 -2 -64 -65 -147 -141 -82 -76 -150 -145 -150 -154 0 -9 12 -98 26
-199 15 -101 24 -185 21 -188 -3 -3 -81 38 -175 90 -93 53 -175 96 -181 96 -6
0 -92 -41 -191 -90 -99 -50 -180 -86 -180 -82 0 5 18 96 39 203 l40 194 -52
55 c-29 30 -94 98 -145 151 l-94 96 33 6 c19 3 104 14 189 23 85 9 164 20 176
25 14 5 52 67 115 188 52 99 94 181 95 181 0 0 40 -86 89 -190z m13177 173
c37 -33 11 -103 -39 -103 -27 0 -63 33 -63 58 0 26 37 62 62 62 12 0 30 -7 40
-17z m19142 -1501 l87 -188 206 -35 206 -35 -155 -142 -155 -142 29 -197 c15
-109 27 -201 26 -204 -2 -4 -83 38 -182 93 l-178 101 -184 -91 c-144 -72 -184
-88 -184 -74 1 9 18 100 39 202 l38 185 -145 147 c-81 81 -144 149 -142 152 3
2 95 14 206 27 l201 22 40 76 c22 42 66 124 97 184 32 59 59 107 60 107 2 0
42 -85 90 -188z m-24382 -129 c10 -9 18 -27 18 -40 0 -28 -33 -63 -60 -63 -26
0 -60 34 -60 62 0 50 63 76 102 41z m20320 0 c37 -33 10 -103 -41 -103 -20 0
-61 40 -61 60 0 50 64 78 102 43z m-22667 -827 l99 -19 -75 -71 -75 -71 13
-90 c7 -49 12 -93 11 -97 -2 -4 -42 14 -89 40 l-86 49 -84 -43 c-46 -24 -87
-43 -90 -43 -4 -1 3 42 13 95 l20 97 -72 72 c-40 40 -68 75 -64 78 5 2 45 8
89 12 44 4 89 12 100 20 11 7 38 49 60 95 l40 82 45 -94 45 -93 100 -19z
m6366 -8 l38 -83 102 -20 102 -20 -76 -70 -76 -70 14 -95 c8 -52 13 -96 11
-98 -2 -2 -40 17 -85 42 -44 25 -85 46 -91 46 -6 0 -47 -18 -91 -41 -45 -22
-83 -38 -85 -36 -2 2 5 46 15 98 l20 94 -71 71 c-80 82 -82 78 45 90 87 7 77
-1 142 117 20 38 39 66 42 63 3 -3 23 -42 44 -88z m14602 -157 c131 -19 128
-14 42 -94 l-75 -72 14 -95 c9 -52 14 -95 13 -97 -2 -1 -42 20 -90 47 l-87 50
-90 -45 c-49 -25 -90 -42 -90 -38 1 5 9 49 20 98 l19 90 -70 70 c-38 39 -69
73 -69 77 0 3 30 9 68 12 136 14 126 8 178 110 l48 91 44 -96 44 -96 81 -12z
m-8081 72 c37 -33 10 -103 -41 -103 -20 0 -61 40 -61 60 0 50 64 78 102 43z
m-15827 -58 c29 -28 31 -42 9 -73 -18 -26 -65 -30 -88 -6 -24 23 -20 70 6 88
31 22 45 20 73 -9z m20090 0 c29 -28 31 -42 9 -73 -18 -26 -75 -30 -94 -7 -20
24 -15 67 10 87 30 24 46 23 75 -7z m-25165 -465 c24 -24 26 -57 3 -82 -33
-37 -103 -11 -103 39 0 28 33 63 60 63 11 0 29 -9 40 -20z"/>
</g>
</svg>
